# xmcd
#
# Track frame offsets:
#	150
#	14973
#	28091
#	44768
#	60929
#	72479
#	89313
#	105286
#	129255
#	152209
#	162293
#	178706
#	187686
#	206614
#
# Disc length: 2813 seconds
#
# Revision: 1
# Processed by: cddbd v1.5.2PL0 Copyright (c) Steve Scherf et al.
# Submitted via: audiograbber 1.83.01
#
DISCID=ba0afb0e
DTITLE=Suger Fix - A Rock n' Roll Inheritance
DYEAR=2003
DGENRE=Rock, Blues
TTITLE0=Red River Rock
TTITLE1=Slow Down
TTITLE2=Born To Be Wild
TTITLE3=Brown Eyed Girl
TTITLE4=Half A Boy And Half A Man
TTITLE5=Que Sera, Sera - Hound Dog
TTITLE6=Greased Lightning
TTITLE7=It's Only Rock n' Roll (But I Like It)
TTITLE8=Wooly Bully
TTITLE9=Sweet Child O' Mine
TTITLE10=Help Me Rhonda
TTITLE11=Ça Plane Pour Moi
TTITLE12=My Baby
TTITLE13=Yakety Yak
EXTD=
EXTT0=
EXTT1=
EXTT2=
EXTT3=
EXTT4=
EXTT5=
EXTT6=
EXTT7=
EXTT8=
EXTT9=
EXTT10=
EXTT11=
EXTT12=
EXTT13=
PLAYORDER=
